# xmcd CD database file
#
# Track frame offsets:
#	150
#	13825
#	32389
#	44020
#	57615
#	72831
#	93933
#	106775
#	127743
#	146303
#	166442
#	183371
#
# Disc length: 2580 seconds
#
# Revision: 1
# Processed by: cddbd v1.4PL0 Copyright (c) Steve Scherf et al.
# Submitted via: CDex 1.50beta10
#
DISCID=9a0a120c
DTITLE=Frank Frost and Sam Carr - The Jelly Roll Kings
DYEAR=1999
DGENRE=Blues
TTITLE0=Lets Go Out Tonight
TTITLE1=It's Cold Outdoors
TTITLE2=Jelly Roll Kings
TTITLE3=Love I Have Is True
TTITLE4=Helena Hop
TTITLE5=Sittin' On Daddy's Knee
TTITLE6=You Took All My Dough
TTITLE7=Baby Please
TTITLE8=Mess Around
TTITLE9=Will It Be You
TTITLE10=Owl Head Woman
TTITLE11=Done With Me
EXTD=YEAR: 1999
EXTT0=
EXTT1=
EXTT2=
EXTT3=
EXTT4=
EXTT5=
EXTT6=
EXTT7=
EXTT8=
EXTT9=
EXTT10=
EXTT11=
PLAYORDER=
